<?xml version="1.0" standalone="no"?>
<!DOCTYPE svg PUBLIC "-//W3C//DTD SVG 20010904//EN"
 "http://www.w3.org/TR/2001/REC-SVG-20010904/DTD/svg10.dtd">
<svg version="1.0" xmlns="http://www.w3.org/2000/svg"
 width="512.000000pt" height="512.000000pt" viewBox="0 0 512.000000 512.000000"
 preserveAspectRatio="xMidYMid meet">

<g transform="translate(0.000000,512.000000) scale(0.100000,-0.100000)"
fill="#000000" stroke="none">
<path d="M186 3197 c-17 -12 -31 -91 -103 -562 -64 -418 -81 -551 -72 -561 9
-11 43 -14 140 -14 113 0 128 2 133 18 2 9 17 94 32 187 25 156 30 172 56 198
27 26 31 27 137 27 61 0 134 5 163 11 161 34 280 150 322 314 15 60 4 189 -19
236 -28 55 -85 108 -145 131 -51 21 -73 23 -340 26 -234 3 -288 1 -304 -11z"/>
<path d="M1663 2858 c-14 -16 -127 -723 -119 -743 4 -11 23 -15 75 -15 38 0
76 3 85 6 18 7 29 45 47 156 6 43 17 82 23 87 6 4 56 11 111 14 154 8 229 44
281 132 49 85 59 240 20 300 -8 12 -36 33 -63 46 -45 22 -62 24 -249 27 -158
3 -202 1 -211 -10z m300 -159 c12 -7 25 -17 29 -23 13 -18 9 -85 -6 -115 -19
-36 -55 -51 -126 -51 -70 0 -68 -5 -45 113 8 43 15 81 15 83 0 9 113 3 133 -7z"/>
<path d="M2405 2616 c-67 -21 -100 -43 -148 -96 -54 -60 -79 -127 -79 -210 0
-157 123 -246 283 -205 34 8 74 24 89 35 l29 20 3 -27 c3 -27 5 -28 73 -31 46
-2 76 2 88 10 14 10 25 63 54 240 19 125 33 234 30 242 -5 13 -23 16 -88 16
-72 0 -81 -2 -86 -20 -7 -25 -7 -25 -42 1 -51 37 -134 48 -206 25z m156 -152
c38 -19 63 -75 54 -121 -9 -47 -71 -109 -119 -118 -95 -18 -153 34 -143 129 4
42 10 55 45 88 35 33 48 38 87 38 25 0 60 -7 76 -16z"/>
<path d="M3303 2538 c-25 -40 -68 -106 -94 -147 l-47 -74 -44 139 -44 139 -92
3 c-83 2 -92 1 -92 -15 0 -10 32 -114 71 -231 l71 -212 -72 -101 c-41 -57 -69
-106 -66 -115 4 -10 25 -14 85 -14 79 0 80 1 104 33 113 150 447 643 443 654
-4 9 -29 13 -91 13 l-85 0 -47 -72z"/>
</g>
</svg>
