<svg xmlns="http://www.w3.org/2000/svg" viewBox="0 0 1080 1080"><defs><style>.cls-1{fill:#939598;}.cls-2{fill:#32bcad;}</style></defs><g id="_Camada_2" data-name="&lt;Camada&gt;"><path class="cls-1" d="M455.38,698.16a6,6,0,0,1-6-6V497.86a70.81,70.81,0,0,1,70.72-70.73l57.39.09A70.74,70.74,0,0,1,648,497.85v41.36a70.8,70.8,0,0,1-70.72,70.72H496.19a6,6,0,0,1,0-12h81.07A58.81,58.81,0,0,0,636,539.21V497.85a58.75,58.75,0,0,0-58.54-58.66l-57.36-.09a58.82,58.82,0,0,0-58.75,58.76V692.17A6,6,0,0,1,455.38,698.16ZM709.49,610.8a6,6,0,0,1-6-6V459.66a20.61,20.61,0,0,0-20.58-20.59H658a6,6,0,0,1,0-12h24.89a32.58,32.58,0,0,1,32.55,32.55V604.82A6,6,0,0,1,709.49,610.8Z"/><path class="cls-2" d="M704.15,410.6l-11.28-11.29a7.17,7.17,0,0,1,0-10.14l11.28-11.28a7.18,7.18,0,0,1,10.15,0l11.28,11.28a7.17,7.17,0,0,1,0,10.14L714.3,410.6a7.18,7.18,0,0,1-10.15,0Z"/><path class="cls-1" d="M781.92,609.53H757.24a6,6,0,1,1,0-12h24.68a41.62,41.62,0,0,0,29.62-12.27l57.73-57.73a25.13,25.13,0,0,1,35.54,0l57.52,57.52A41.62,41.62,0,0,0,992,597.35H1012a6,6,0,0,1,0,12H992a53.5,53.5,0,0,1-38.08-15.78L896.35,536a13.16,13.16,0,0,0-18.62,0L820,593.76A53.51,53.51,0,0,1,781.92,609.53ZM887,516.31a25,25,0,0,1-17.77-7.37l-57.73-57.73A41.61,41.61,0,0,0,781.92,439H757.24a6,6,0,1,1,0-12h24.68A53.51,53.51,0,0,1,820,442.75l57.73,57.73a13.16,13.16,0,0,0,18.62,0L953.87,443A53.49,53.49,0,0,1,992,427.19H1012a6,6,0,0,1,0,12H992a41.61,41.61,0,0,0-29.62,12.26l-57.52,57.52A25,25,0,0,1,887,516.31Z"/><path class="cls-2" d="M308.23,640.43a46.12,46.12,0,0,1-32.8-13.58l-47.36-47.36a9,9,0,0,0-12.44,0L168.1,627a46.12,46.12,0,0,1-32.8,13.58H126l60,60a48,48,0,0,0,67.83,0l60.15-60.15Z"/><path class="cls-2" d="M135.3,472.92a46.08,46.08,0,0,1,32.8,13.58L215.63,534a8.81,8.81,0,0,0,12.44,0l47.36-47.36a46.08,46.08,0,0,1,32.8-13.58h5.7l-60.15-60.15a48,48,0,0,0-67.83,0l-60,60Z"/><path class="cls-2" d="M363.68,522.84l-36.35-36.35a6.91,6.91,0,0,1-2.58.53H308.23a32.67,32.67,0,0,0-23,9.5l-47.35,47.36a22.75,22.75,0,0,1-32.15,0l-47.53-47.53a32.68,32.68,0,0,0-22.95-9.51H115a6.89,6.89,0,0,1-2.44-.49L76.05,522.84a48,48,0,0,0,0,67.84l36.49,36.49a6.85,6.85,0,0,1,2.44-.5H135.3a32.67,32.67,0,0,0,22.95-9.5l47.53-47.53c8.59-8.58,23.56-8.59,32.15,0L285.28,617a32.63,32.63,0,0,0,23,9.51h16.52a7,7,0,0,1,2.59.52l36.34-36.34a48,48,0,0,0,0-67.84Z"/><path class="cls-1" d="M504.71,675.66a42.13,42.13,0,0,0-8.89,1.35v11.85a20.61,20.61,0,0,0,6.93,1.15c5.93,0,8.75-2,8.75-7.23,0-4.92-2.31-7.12-6.79-7.12Zm-10.89,22V674.23h1.63l.17,1a46.26,46.26,0,0,1,9.26-1.49,9.21,9.21,0,0,1,6.08,1.76c2,1.66,2.68,4.34,2.68,7.26s-1,5.94-3.8,7.54a14.76,14.76,0,0,1-6.89,1.52,24.82,24.82,0,0,1-7.13-1.08v6.89Z"/><path class="cls-1" d="M528.55,675.59c-5.94,0-8.59,1.86-8.59,7.09,0,5.06,2.61,7.33,8.59,7.33s8.55-1.83,8.55-7.06c0-5.06-2.61-7.36-8.55-7.36ZM536.18,690c-2,1.42-4.61,1.83-7.63,1.83s-5.74-.44-7.67-1.83c-2.18-1.53-3.06-4-3.06-7.19s.88-5.67,3.06-7.24c1.93-1.39,4.58-1.82,7.67-1.82s5.66.43,7.63,1.82c2.21,1.57,3.06,4.11,3.06,7.2s-.89,5.7-3.06,7.23Zm0,0Z"/><polygon class="cls-1" points="564.29 691.37 557.68 677.15 557.54 677.15 551.02 691.37 549.23 691.37 542.17 674.23 544.37 674.23 550.24 688.62 550.38 688.62 556.76 674.23 558.59 674.23 565.14 688.62 565.28 688.62 571.01 674.23 573.15 674.23 566.09 691.37 564.29 691.37 564.29 691.37"/><path class="cls-1" d="M586,675.55c-5.5,0-7.36,2.45-7.7,6h15.4c-.16-3.9-2.17-6-7.7-6Zm-.06,16.29c-3.3,0-5.44-.47-7.13-1.9-2-1.73-2.68-4.24-2.68-7.12s.91-5.67,3.19-7.33a11.42,11.42,0,0,1,6.68-1.73,12,12,0,0,1,6.86,1.66c2.47,1.66,3,4.58,3,7.9H578.18c.07,3.53,1.22,6.66,7.87,6.66a50.75,50.75,0,0,0,8.86-1v1.8a52.44,52.44,0,0,1-9,1.05Z"/><path class="cls-1" d="M601.51,691.37V674.23h1.63l.17,1c3.63-.92,5.33-1.49,8.51-1.49h.24v1.9h-.47c-2.68,0-4.31.37-8.08,1.35v14.36Z"/><path class="cls-1" d="M623.69,675.55c-5.5,0-7.36,2.45-7.7,6h15.4c-.16-3.9-2.17-6-7.7-6Zm-.07,16.29c-3.29,0-5.43-.47-7.12-1.9-2-1.73-2.68-4.24-2.68-7.12s.91-5.67,3.19-7.33a11.42,11.42,0,0,1,6.68-1.73,12,12,0,0,1,6.86,1.66c2.47,1.66,3,4.58,3,7.9H615.92c.07,3.53,1.22,6.66,7.87,6.66a50.75,50.75,0,0,0,8.86-1v1.8a52.44,52.44,0,0,1-9,1.05Z"/><path class="cls-1" d="M655.43,676.74a20.55,20.55,0,0,0-6.92-1.15c-5.94,0-8.75,2-8.75,7.23,0,4.95,2.3,7.12,6.78,7.12a43.9,43.9,0,0,0,8.89-1.32V676.74Zm.38,14.63-.17-1a47,47,0,0,1-9.27,1.49,9,9,0,0,1-6.07-1.76c-2-1.67-2.68-4.35-2.68-7.26,0-3.06,1-5.94,3.8-7.51a14.43,14.43,0,0,1,6.92-1.55,25.8,25.8,0,0,1,7.09,1.08V667h2v24.37Z"/><path class="cls-1" d="M686.8,675.66a42.12,42.12,0,0,0-8.9,1.35v11.81a19.89,19.89,0,0,0,6.93,1.19c5.94,0,8.75-2,8.75-7.23,0-4.92-2.3-7.12-6.78-7.12Zm5.12,14.66a14.76,14.76,0,0,1-6.89,1.52,24.35,24.35,0,0,1-7.67-1.29l-.1.82H675.9V667h2v8.18a48.34,48.34,0,0,1,9.06-1.42,9.19,9.19,0,0,1,6.08,1.76c2,1.66,2.68,4.34,2.68,7.26s-1,5.94-3.8,7.54Z"/><path class="cls-1" d="M698.38,698v-1.86c1,.1,1.9.17,2.54.17,2.48,0,4-.72,5.37-3.54l.64-1.35-9-17.14h2.31L708,689h.14l7.29-14.79h2.27L708,693.47c-1.77,3.5-3.67,4.65-7.17,4.65a21.52,21.52,0,0,1-2.47-.17Z"/><path class="cls-1" d="M745.25,681.59H738.6v6h6.68c4.59,0,6.32-.51,6.32-3,0-2.68-2.38-3-6.35-3ZM744,671.85H738.6V678h5.46c4.52,0,6.32-.54,6.32-3.09,0-2.71-2.28-3-6.35-3Zm10.32,17.89c-2.45,1.56-5.4,1.63-10.8,1.63H733.41V668.12h9.91c4.65,0,7.5.07,9.87,1.5a4.9,4.9,0,0,1,2.38,4.61c0,2.44-1,4.07-3.67,5.16v.13c3,.68,4.92,2.21,4.92,5.5a5,5,0,0,1-2.47,4.72Z"/><path class="cls-1" d="M777.13,684.17c-2-.17-4-.27-6.18-.27-3.5,0-4.72.71-4.72,2.31s1,2.31,3.7,2.31a35.39,35.39,0,0,0,7.2-1v-3.33Zm1,7.2-.13-1a41.66,41.66,0,0,1-9.3,1.49,8.81,8.81,0,0,1-5.19-1.26,5.3,5.3,0,0,1,1-8.78c1.8-.85,4.21-.92,6.42-.92,1.79,0,4.2.1,6.21.24v-.31c0-2.68-1.77-3.56-6.59-3.56-1.86,0-4.14.1-6.31.3v-3.46c2.41-.2,5.12-.33,7.36-.33,3,0,6.08.23,8,1.59s2.34,3.33,2.34,5.87v10.15Z"/><path class="cls-1" d="M804.29,691.37V681.9c0-3.12-1.6-4.24-4.45-4.24a32.63,32.63,0,0,0-7,1.08v12.63h-4.79V674.23H792l.16,1.08a40.28,40.28,0,0,1,9.17-1.55,8.45,8.45,0,0,1,5.87,1.76c1.36,1.22,1.87,2.92,1.87,5.36v10.49Z"/><path class="cls-1" d="M822.56,691.84c-2.21,0-4.62-.3-6.38-1.8-2.11-1.69-2.72-4.37-2.72-7.26,0-2.71.88-5.67,3.5-7.33,2.13-1.39,4.78-1.7,7.53-1.7,2,0,3.9.14,6,.34v3.67c-1.73-.17-3.8-.31-5.46-.31-4.55,0-6.69,1.43-6.69,5.37,0,3.7,1.6,5.29,5.33,5.29a40.91,40.91,0,0,0,7.2-.88v3.53a43.7,43.7,0,0,1-8.35,1.08Z"/><path class="cls-1" d="M845,677.35c-4.55,0-6.55,1.43-6.55,5.33s2,5.57,6.55,5.57,6.48-1.4,6.48-5.3-1.93-5.6-6.48-5.6ZM853.25,690c-2.1,1.43-4.85,1.8-8.21,1.8s-6.18-.41-8.25-1.8c-2.37-1.56-3.22-4.14-3.22-7.22s.85-5.71,3.22-7.27c2.07-1.39,4.82-1.8,8.25-1.8s6.11.41,8.21,1.8c2.38,1.56,3.19,4.18,3.19,7.23s-.85,5.7-3.19,7.26Zm0,0Z"/><path class="cls-1" d="M884.07,691.84c-2.89,0-6-.47-8.35-2.41-2.78-2.31-3.63-5.87-3.63-9.7,0-3.43,1.08-7.5,4.71-9.88,2.82-1.83,6.32-2.2,9.85-2.2,2.58,0,5.22.17,8.11.4v4.18c-2.48-.21-5.53-.38-7.91-.38-6.62,0-9.43,2.52-9.43,7.88s2.61,7.91,7.5,7.91a52.89,52.89,0,0,0,10.35-1.4v4.14a57.31,57.31,0,0,1-11.2,1.46Z"/><path class="cls-1" d="M909.33,676.81c-4,0-5.5,1.43-5.81,4h11.54c-.13-2.78-1.76-4-5.73-4Zm-.72,15c-2.81,0-5.36-.34-7.26-1.9s-2.75-4.24-2.75-7.16c0-2.61.85-5.53,3.23-7.23,2.1-1.49,4.78-1.8,7.5-1.8,2.44,0,5.33.27,7.43,1.73,2.75,1.94,3,4.93,3,8.46H903.49c.1,2.61,1.49,4.31,6.31,4.31a60.48,60.48,0,0,0,9.13-.89v3.36a64,64,0,0,1-10.32,1.12Z"/><path class="cls-1" d="M941.07,691.37V681.9c0-3.12-1.6-4.24-4.45-4.24a32.63,32.63,0,0,0-7,1.08v12.63h-4.78V674.23h3.9l.17,1.08a40.1,40.1,0,0,1,9.16-1.55,8.44,8.44,0,0,1,5.87,1.76c1.36,1.22,1.87,2.92,1.87,5.36v10.49Z"/><path class="cls-1" d="M959.44,691.84c-2.31,0-4.41-.64-5.56-2.44a8.86,8.86,0,0,1-1.26-5.19v-6.42h-3.46v-3.56h3.46l.51-5.19h4.24v5.19h6.75v3.56h-6.75v5.5a8.07,8.07,0,0,0,.48,3.26c.51,1.15,1.62,1.59,3.12,1.59a22.29,22.29,0,0,0,3.42-.33v3.42a26.69,26.69,0,0,1-4.95.61Z"/><path class="cls-1" d="M968.79,691.37V674.23h3.9l.18,1.08a29.73,29.73,0,0,1,8.48-1.55,5.23,5.23,0,0,1,.61,0v4.07c-.54,0-1.19,0-1.66,0a26.88,26.88,0,0,0-6.72.88v12.66Z"/><path class="cls-1" d="M999.36,684.17c-2-.17-4-.27-6.18-.27-3.5,0-4.72.71-4.72,2.31s1,2.31,3.7,2.31a35.39,35.39,0,0,0,7.2-1v-3.33Zm1,7.2-.13-1a41.66,41.66,0,0,1-9.3,1.49,8.81,8.81,0,0,1-5.19-1.26,5.3,5.3,0,0,1,1-8.78c1.8-.85,4.21-.92,6.42-.92,1.79,0,4.2.1,6.21.24v-.31c0-2.68-1.77-3.56-6.59-3.56-1.86,0-4.14.1-6.31.3v-3.46c2.41-.2,5.12-.33,7.36-.33,3,0,6.08.23,8,1.59s2.34,3.33,2.34,5.87v10.15Z"/><polygon class="cls-1" points="1010.29 667 1015.08 667 1015.08 691.37 1010.29 691.37 1010.29 667 1010.29 667"/></g></svg>