<?xml version="1.0" standalone="no"?>
<!DOCTYPE svg PUBLIC "-//W3C//DTD SVG 20010904//EN"
 "http://www.w3.org/TR/2001/REC-SVG-20010904/DTD/svg10.dtd">
<svg version="1.0" xmlns="http://www.w3.org/2000/svg"
 width="512.000000pt" height="512.000000pt" viewBox="0 0 512.000000 512.000000"
 preserveAspectRatio="xMidYMid meet">

<g transform="translate(0.000000,512.000000) scale(0.100000,-0.100000)"
fill="#000000" stroke="none">
<path d="M172 4290 c-68 -35 -115 -82 -146 -149 l-21 -46 0 -1535 0 -1535 28
-57 c30 -61 74 -105 140 -140 l42 -23 2345 0 2345 0 55 31 c64 36 122 107 142
173 11 38 13 326 13 1561 0 1424 -1 1518 -18 1559 -25 64 -77 122 -138 156
l-54 30 -2336 3 -2335 2 -62 -30z m821 -1032 l16 -33 0 33 1 32 179 0 178 0
33 -75 c18 -42 36 -78 40 -80 4 -2 22 32 40 75 l34 80 591 0 c560 0 593 -1
628 -19 36 -18 37 -18 37 0 0 18 10 19 160 19 152 0 160 -1 160 -19 0 -19 1
-19 38 -3 31 14 80 17 317 20 l281 3 16 -33 17 -33 0 33 1 32 168 0 168 0 17
-32 16 -33 0 33 1 32 160 0 160 0 0 -345 0 -345 -165 0 -165 0 -30 48 -30 47
0 -47 0 -48 -204 0 -205 0 -19 53 -20 52 -49 3 -50 3 -19 -53 -19 -53 -150 1
c-113 1 -161 5 -194 18 -54 20 -51 20 -51 -4 0 -19 -7 -20 -255 -20 l-255 0 0
90 c0 53 -4 90 -10 90 -6 0 -10 -37 -10 -90 l0 -90 -485 0 -485 0 -1 33 -1 32
-14 -32 -14 -33 -105 0 -105 0 -14 33 -14 32 -1 -32 -1 -33 -204 0 -203 0 -20
53 c-20 51 -21 52 -64 55 l-44 3 -20 -53 -21 -53 -182 -3 c-100 -1 -182 0
-182 4 0 3 53 126 118 272 65 147 132 300 148 339 l29 73 156 0 155 0 17 -32z
m984 -792 c4 -7 23 -30 41 -51 l34 -38 53 53 52 52 249 -4 c165 -3 259 -8 278
-16 24 -11 30 -10 40 4 11 14 38 16 237 12 190 -3 229 -6 257 -21 31 -17 32
-17 32 3 0 20 5 20 290 20 279 0 290 -1 290 -19 0 -19 1 -19 33 -3 26 14 69
18 230 20 191 4 197 3 197 -16 0 -20 0 -20 37 -1 32 17 60 19 215 19 l178 0 0
-169 c0 -127 4 -177 15 -204 8 -20 15 -65 15 -100 0 -123 -73 -215 -189 -237
-29 -5 -130 -10 -222 -10 -161 0 -169 1 -169 19 0 19 -1 19 -37 3 -34 -15 -90
-17 -553 -17 l-515 0 -3 88 c-4 115 -22 113 -22 -3 l0 -90 -160 0 -160 0 0 94
0 95 -32 -10 c-18 -5 -61 -9 -95 -9 l-63 0 0 -80 0 -80 -197 0 -198 0 -42 47
-42 48 -48 -47 -49 -48 -312 0 -312 0 0 348 c0 192 3 352 7 355 3 4 147 7 319
7 254 0 315 -3 321 -14z"/>
<path d="M737 3178 c-3 -7 -44 -105 -92 -218 -48 -113 -91 -215 -96 -227 -8
-22 -7 -23 50 -23 l59 0 21 50 22 50 122 0 122 0 22 -50 22 -50 115 0 116 0 0
186 c0 102 4 183 8 180 4 -2 43 -86 87 -185 l78 -181 51 0 51 0 79 180 c43 99
83 183 87 186 5 3 9 -78 9 -180 l0 -186 50 0 50 0 0 240 0 241 -91 -3 -91 -3
-67 -162 c-37 -90 -70 -165 -73 -168 -2 -3 -39 70 -81 162 l-76 168 -90 3 -91
3 0 -232 c0 -128 -3 -230 -6 -227 -3 4 -47 107 -99 230 l-93 223 -85 3 c-62 2
-86 -1 -90 -10z m158 -249 c6 -18 0 -19 -73 -19 l-80 0 30 78 c16 42 34 88 40
102 9 23 12 19 44 -59 18 -46 36 -92 39 -102z"/>
<path d="M1870 2945 l0 -245 190 0 190 0 0 50 0 50 -135 0 -135 0 0 50 0 50
130 0 130 0 0 45 0 45 -130 0 -130 0 0 50 0 50 135 0 135 0 0 50 0 50 -190 0
-190 0 0 -245z"/>
<path d="M2330 2951 l0 -241 60 0 60 0 0 85 0 85 94 0 c90 0 96 -1 115 -26 16
-20 21 -41 21 -85 l0 -59 50 0 50 0 0 65 c0 74 -18 128 -50 145 -21 11 -21 11
9 39 60 56 59 159 -2 205 -26 19 -44 21 -218 24 l-189 4 0 -241z m324 123 c9
-8 16 -28 16 -44 0 -46 -30 -60 -132 -60 l-88 0 0 60 0 60 94 0 c73 0 98 -4
110 -16z"/>
<path d="M2870 2950 l0 -240 55 0 55 0 0 240 0 240 -55 0 -55 0 0 -240z"/>
<path d="M3197 3180 c-109 -21 -172 -149 -148 -299 12 -73 20 -89 66 -129 46
-41 70 -47 189 -47 l98 0 20 53 20 53 125 -3 125 -3 18 -45 18 -45 116 -3 116
-3 0 181 c0 100 4 179 9 176 4 -3 55 -84 112 -180 l104 -175 78 -1 77 0 0 235
0 235 -55 0 -55 0 0 -165 c0 -91 -4 -165 -8 -165 -4 0 -51 74 -105 165 l-98
165 -84 0 -85 0 -2 -232 -3 -233 -96 230 -96 230 -87 0 -88 0 -77 -185 -77
-185 -51 -3 c-45 -3 -56 1 -84 26 -28 25 -33 37 -37 89 -9 127 32 173 156 173
l72 0 0 50 0 50 -72 -1 c-40 -1 -90 -5 -111 -9z m416 -175 l34 -90 -38 -3
c-21 -2 -58 -2 -82 0 l-44 3 41 97 c23 53 44 94 48 90 3 -4 22 -47 41 -97z"/>
<path d="M3905 2361 c-72 -18 -105 -62 -105 -144 0 -40 5 -61 21 -81 29 -36
58 -47 157 -56 93 -9 112 -20 112 -61 0 -42 -24 -49 -159 -49 l-121 0 0 -51 0
-51 143 4 c206 6 247 31 247 155 0 100 -36 128 -179 139 -96 7 -115 17 -109
56 4 30 30 36 161 37 l107 1 0 55 0 55 -122 -1 c-68 -1 -136 -4 -153 -8z"/>
<path d="M4361 2360 c-72 -17 -111 -66 -111 -140 0 -93 42 -126 177 -140 70
-7 91 -13 105 -30 9 -12 14 -29 11 -38 -12 -36 -34 -42 -160 -42 l-123 0 0
-51 0 -51 143 4 c160 4 205 18 238 72 25 40 25 112 0 152 -26 43 -78 64 -176
71 -90 6 -109 16 -103 55 4 30 30 36 166 37 l112 1 0 55 0 55 -122 -1 c-68 -1
-138 -5 -157 -9z"/>
<path d="M2810 2115 l0 -245 60 0 60 0 0 90 0 90 93 0 c123 0 130 -5 135 -104
l4 -76 54 0 54 0 0 75 c0 67 -13 124 -29 125 -3 0 -15 7 -26 15 -19 15 -19 15
3 31 57 39 70 141 26 193 -36 43 -77 51 -266 51 l-168 0 0 -245z m337 119 c14
-20 10 -59 -9 -81 -7 -9 -42 -13 -109 -13 l-99 0 0 53 c0 30 3 57 8 61 4 5 49
6 101 3 77 -4 97 -8 108 -23z"/>
<path d="M3350 2115 l0 -245 190 0 190 0 0 50 0 50 -135 0 -135 0 0 50 0 49
133 3 132 3 0 45 0 45 -132 3 -133 3 0 44 0 45 135 0 135 0 0 50 0 50 -190 0
-190 0 0 -245z"/>
<path d="M1460 2110 l0 -240 219 0 218 0 77 81 c57 59 81 78 90 70 6 -6 39
-42 71 -80 l60 -71 113 0 112 0 0 89 0 88 109 5 c161 8 217 43 229 143 7 64
-17 108 -73 135 -38 18 -61 20 -261 20 l-220 0 -74 -81 -73 -81 -75 81 -74 81
-224 0 -224 0 0 -240z m850 -2 l-1 -203 -85 90 c-46 50 -89 97 -93 105 -7 12
12 39 81 113 49 53 92 97 94 97 2 0 4 -91 4 -202z m-396 83 c32 -39 58 -73 59
-76 1 -4 -27 -40 -63 -81 l-65 -74 -142 0 -143 0 0 55 0 55 125 0 125 0 0 50
0 50 -125 0 -125 0 0 45 0 45 148 0 148 0 58 -69z m715 43 c27 -34 26 -50 -4
-79 -22 -23 -32 -25 -115 -25 l-90 0 0 65 0 65 94 0 c90 0 96 -1 115 -26z"/>
</g>
</svg>
