<?xml version="1.0" standalone="no"?>
<!DOCTYPE svg PUBLIC "-//W3C//DTD SVG 20010904//EN"
 "http://www.w3.org/TR/2001/REC-SVG-20010904/DTD/svg10.dtd">
<svg version="1.0" xmlns="http://www.w3.org/2000/svg"
 width="32.000000pt" height="32.000000pt" viewBox="0 0 32.000000 32.000000"
 preserveAspectRatio="xMidYMid meet">

<g transform="translate(0.000000,32.000000) scale(0.100000,-0.100000)"
fill="#000000" stroke="none">
<path d="M110 289 c-19 -11 -46 -19 -59 -19 -23 0 -24 -1 -18 -66 7 -75 38
-136 86 -172 38 -27 44 -27 82 0 48 36 79 97 86 172 6 65 6 66 -18 66 -14 0
-42 9 -64 20 -46 23 -49 23 -95 -1z m85 -19 c22 -11 48 -20 58 -20 18 0 19 -5
13 -52 -9 -63 -24 -93 -70 -137 l-36 -35 -36 35 c-46 44 -61 74 -70 136 l-6
50 34 7 c28 5 49 15 73 36 1 0 18 -9 40 -20z"/>
</g>
</svg>
