<?xml version="1.0" encoding="UTF-8" standalone="no"?>
<svg
   xmlns:dc="http://purl.org/dc/elements/1.1/"
   xmlns:cc="http://creativecommons.org/ns#"
   xmlns:rdf="http://www.w3.org/1999/02/22-rdf-syntax-ns#"
   xmlns:svg="http://www.w3.org/2000/svg"
   xmlns="http://www.w3.org/2000/svg"
   xmlns:sodipodi="http://sodipodi.sourceforge.net/DTD/sodipodi-0.dtd"
   xmlns:inkscape="http://www.inkscape.org/namespaces/inkscape"
   viewBox="0 0 468.90586 348.91565"
   height="348.91565"
   width="468.90585"
   xml:space="preserve"
   id="svg2"
   version="1.1"
   sodipodi:docname="elo-logo.svg"
   inkscape:version="0.92.2 (5c3e80d, 2017-08-06)"><sodipodi:namedview
     pagecolor="#ffffff"
     bordercolor="#666666"
     borderopacity="1"
     objecttolerance="10"
     gridtolerance="10"
     guidetolerance="10"
     inkscape:pageopacity="0"
     inkscape:pageshadow="2"
     inkscape:window-width="1600"
     inkscape:window-height="837"
     id="namedview90"
     showgrid="false"
     inkscape:zoom="0.29733907"
     inkscape:cx="898.57719"
     inkscape:cy="220.94961"
     inkscape:window-x="-8"
     inkscape:window-y="-8"
     inkscape:window-maximized="1"
     inkscape:current-layer="g10"
     fit-margin-top="0"
     fit-margin-left="0"
     fit-margin-right="0"
     fit-margin-bottom="0" /><metadata
     id="metadata8"><rdf:RDF><cc:Work
         rdf:about=""><dc:format>image/svg+xml</dc:format><dc:type
           rdf:resource="http://purl.org/dc/dcmitype/StillImage" /><dc:title></dc:title></cc:Work></rdf:RDF></metadata><defs
     id="defs6"><clipPath
       id="clipPath20"
       clipPathUnits="userSpaceOnUse"><path
         id="path18"
         d="M 0,595.28 H 595.28 V 0 H 0 Z"
         inkscape:connector-curvature="0" /></clipPath></defs><g
     transform="matrix(1.3333333,0,0,-1.3333333,-148.21892,501.73283)"
     id="g10"><path
       id="path12"
       style="fill:#231f20;fill-opacity:1;fill-rule:nonzero;stroke:none;stroke-width:0.71119773"
       d="M 293.77552,289.37158 H 111.16419 v 86.92805 h 182.61133 z"
       inkscape:connector-curvature="0" /><g
       id="g14"><g
         clip-path="url(#clipPath20)"
         id="g16"><g
           transform="translate(153.209,348.2915)"
           id="g22"><path
             id="path24"
             style="fill:#fbc707;fill-opacity:1;fill-rule:nonzero;stroke:none"
             d="m 0,0 c 1.557,0.521 3.223,0.801 4.955,0.801 7.555,0 13.859,-5.366 15.307,-12.501 l 10.709,2.187 C 28.514,2.605 17.801,11.73 4.955,11.73 c -2.945,0 -5.773,-0.479 -8.418,-1.364 z"
             inkscape:connector-curvature="0" /></g><g
           transform="translate(140.5723,313.5845)"
           id="g26"><path
             id="path28"
             style="fill:#38a7e4;fill-opacity:1;fill-rule:nonzero;stroke:none"
             d="m 0,0 7.242,8.188 c -3.234,2.865 -5.271,7.044 -5.271,11.7 0,4.654 2.037,8.831 5.267,11.693 L -0.006,39.77 C -5.498,34.906 -8.961,27.801 -8.961,19.888 -8.961,11.971 -5.494,4.864 0,0"
             inkscape:connector-curvature="0" /></g><g
           transform="translate(173.4648,330.3374)"
           id="g30"><path
             id="path32"
             style="fill:#ef3120;fill-opacity:1;fill-rule:nonzero;stroke:none"
             d="m 0,0 c -1.447,-7.127 -7.748,-12.485 -15.301,-12.485 -1.734,0 -3.402,0.28 -4.959,0.804 l -3.469,-10.368 c 2.647,-0.886 5.481,-1.362 8.428,-1.362 12.834,0 23.545,9.106 26.012,21.218 z"
             inkscape:connector-curvature="0" /></g><g
           transform="translate(214.9453,324.6582)"
           id="g34"><path
             id="path36"
             style="fill:#ffffff;fill-opacity:1;fill-rule:nonzero;stroke:none"
             d="m 0,0 c -0.004,-0.005 -0.006,-0.007 -0.008,-0.012 l -0.306,0.208 c -0.877,-1.425 -2.243,-2.577 -3.971,-3.324 -3.287,-1.43 -6.332,-1.063 -8.518,0.855 l -0.201,-0.304 c -0.002,0.002 -0.002,0.005 -0.006,0.005 l -3.73,-5.579 c 0.926,-0.642 1.92,-1.189 2.963,-1.624 4.121,-1.71 8.336,-1.63 12.488,0.175 3.002,1.299 5.359,3.285 6.971,5.801 z M -11.643,13.763 C -15.109,12.272 -16.9,9.018 -16.531,5.2 l 14.697,6.327 c -2.525,2.972 -5.816,3.955 -9.809,2.236 M -21.4,-3.231 c -0.352,0.568 -0.829,1.479 -1.116,2.147 -1.695,3.937 -1.777,8.011 -0.345,11.922 1.574,4.291 4.584,7.574 8.468,9.246 4.889,2.104 10.293,1.687 14.977,-1.09 C 3.557,17.288 5.666,14.653 7.268,10.927 7.473,10.45 7.65,9.938 7.826,9.506 Z"
             inkscape:connector-curvature="0" /></g><g
           transform="translate(232.9883,352.9595)"
           id="g38"><path
             id="path40"
             style="fill:#ffffff;fill-opacity:1;fill-rule:nonzero;stroke:none"
             d="m 0,0 v -31.018 l 4.822,-1.953 -2.74,-6.392 -5.322,2.212 c -1.196,0.519 -2.008,1.311 -2.625,2.205 -0.586,0.911 -1.028,2.161 -1.028,3.843 V 0 Z"
             inkscape:connector-curvature="0" /></g><g
           transform="translate(245.4785,329.8447)"
           id="g42"><path
             id="path44"
             style="fill:#ffffff;fill-opacity:1;fill-rule:nonzero;stroke:none"
             d="m 0,0 c 0.004,2.64 1.172,5.009 3.016,6.619 l -4.948,5.515 C -5.287,9.167 -7.398,4.836 -7.404,0.007 c -0.006,-4.834 2.103,-9.17 5.459,-12.144 l 4.939,5.523 C 1.16,-5 0,-2.635 0,0"
             inkscape:connector-curvature="0" /></g><g
           transform="translate(254.2695,321.0415)"
           id="g46"><path
             id="path48"
             style="fill:#ffffff;fill-opacity:1;fill-rule:nonzero;stroke:none"
             d="M 0,0 C -0.973,0.002 -1.91,0.164 -2.787,0.456 L -5.15,-6.572 c 1.615,-0.542 3.347,-0.836 5.144,-0.838 7.832,-0.007 14.375,5.551 15.889,12.94 L 8.621,7.011 C 7.797,3.007 4.248,-0.004 0,0"
             inkscape:connector-curvature="0" /></g><g
           transform="translate(254.291,346.042)"
           id="g50"><path
             id="path52"
             style="fill:#ffffff;fill-opacity:1;fill-rule:nonzero;stroke:none"
             d="m 0,0 c -1.797,0.002 -3.523,-0.29 -5.139,-0.827 l 2.344,-7.032 c 0.877,0.289 1.815,0.451 2.789,0.451 4.258,-0.005 7.807,-3.033 8.611,-7.049 l 7.264,1.475 C 14.377,-5.584 7.842,-0.005 0,0"
             inkscape:connector-curvature="0" /></g><g
           transform="translate(345.8945,348.2915)"
           id="g56"><path
             id="path58"
             style="fill:#fbc707;fill-opacity:1;fill-rule:nonzero;stroke:none"
             d="m 0,0 c 1.557,0.521 3.221,0.801 4.955,0.801 7.553,0 13.859,-5.366 15.305,-12.501 l 10.709,2.187 C 28.512,2.605 17.799,11.73 4.955,11.73 c -2.947,0 -5.775,-0.479 -8.42,-1.364 z"
             inkscape:connector-curvature="0" /></g><g
           transform="translate(333.2559,313.5845)"
           id="g60"><path
             id="path62"
             style="fill:#38a7e4;fill-opacity:1;fill-rule:nonzero;stroke:none"
             d="m 0,0 7.244,8.188 c -3.234,2.865 -5.273,7.044 -5.273,11.7 0,4.654 2.037,8.831 5.267,11.693 L -0.006,39.77 C -5.498,34.906 -8.961,27.801 -8.961,19.888 -8.961,11.971 -5.494,4.864 0,0"
             inkscape:connector-curvature="0" /></g><g
           transform="translate(366.1504,330.3374)"
           id="g64"><path
             id="path66"
             style="fill:#ef3120;fill-opacity:1;fill-rule:nonzero;stroke:none"
             d="m 0,0 c -1.449,-7.127 -7.75,-12.485 -15.301,-12.485 -1.736,0 -3.404,0.28 -4.959,0.804 l -3.47,-10.368 c 2.646,-0.886 5.48,-1.362 8.429,-1.362 12.832,0 23.543,9.106 26.01,21.218 z"
             inkscape:connector-curvature="0" /></g><g
           transform="translate(407.6289,324.6582)"
           id="g68"><path
             id="path70"
             style="fill:#231f20;fill-opacity:1;fill-rule:nonzero;stroke:none"
             d="m 0,0 c -0.004,-0.005 -0.006,-0.007 -0.008,-0.012 l -0.306,0.208 c -0.877,-1.425 -2.243,-2.577 -3.971,-3.324 -3.287,-1.43 -6.332,-1.063 -8.518,0.855 l -0.201,-0.304 -0.004,0.005 -3.732,-5.579 c 0.926,-0.642 1.92,-1.189 2.965,-1.624 4.119,-1.71 8.334,-1.63 12.486,0.175 3.002,1.299 5.359,3.285 6.971,5.801 z M -11.643,13.763 C -15.109,12.272 -16.9,9.018 -16.531,5.2 l 14.697,6.327 c -2.525,2.972 -5.816,3.955 -9.809,2.236 M -21.4,-3.231 c -0.352,0.568 -0.829,1.479 -1.116,2.147 -1.695,3.937 -1.777,8.011 -0.345,11.922 1.574,4.291 4.584,7.574 8.468,9.246 4.889,2.104 10.293,1.687 14.977,-1.09 C 3.557,17.288 5.666,14.653 7.268,10.927 7.473,10.45 7.65,9.938 7.826,9.506 Z"
             inkscape:connector-curvature="0" /></g><g
           transform="translate(425.6719,352.9595)"
           id="g72"><path
             id="path74"
             style="fill:#231f20;fill-opacity:1;fill-rule:nonzero;stroke:none"
             d="m 0,0 v -31.018 l 4.822,-1.953 -2.74,-6.392 -5.322,2.212 c -1.196,0.519 -2.008,1.311 -2.625,2.205 -0.586,0.911 -1.028,2.161 -1.028,3.843 V 0 Z"
             inkscape:connector-curvature="0" /></g><g
           transform="translate(438.1641,329.8447)"
           id="g76"><path
             id="path78"
             style="fill:#231f20;fill-opacity:1;fill-rule:nonzero;stroke:none"
             d="m 0,0 c 0.002,2.64 1.17,5.009 3.014,6.619 l -4.948,5.515 C -5.289,9.167 -7.4,4.836 -7.406,0.007 c -0.006,-4.834 2.103,-9.17 5.459,-12.144 l 4.939,5.523 C 1.158,-5 -0.002,-2.635 0,0"
             inkscape:connector-curvature="0" /></g><g
           transform="translate(446.9531,321.0415)"
           id="g80"><path
             id="path82"
             style="fill:#231f20;fill-opacity:1;fill-rule:nonzero;stroke:none"
             d="M 0,0 C -0.975,0.002 -1.91,0.164 -2.787,0.456 L -5.15,-6.572 c 1.615,-0.542 3.347,-0.836 5.144,-0.838 7.832,-0.007 14.375,5.551 15.891,12.94 L 8.621,7.011 C 7.797,3.007 4.248,-0.004 0,0"
             inkscape:connector-curvature="0" /></g><g
           transform="translate(446.9746,346.042)"
           id="g84"><path
             id="path86"
             style="fill:#231f20;fill-opacity:1;fill-rule:nonzero;stroke:none"
             d="m 0,0 c -1.797,0.002 -3.523,-0.29 -5.139,-0.827 l 2.344,-7.032 c 0.877,0.289 1.815,0.451 2.789,0.451 4.258,-0.005 7.807,-3.033 8.611,-7.049 l 7.264,1.475 C 14.377,-5.584 7.842,-0.005 0,0"
             inkscape:connector-curvature="0" /></g><path
           id="path88"
           style="fill:#231f20;fill-opacity:1;fill-rule:nonzero;stroke:none;stroke-width:0.6969769"
           d="M 290.52364,114.61288 H 112.01117 v 85.40341 h 178.51247 z"
           inkscape:connector-curvature="0" /><g
           transform="translate(153.209,171.2588)"
           id="g90"><path
             id="path92"
             style="fill:#ffffff;fill-opacity:1;fill-rule:nonzero;stroke:none"
             d="m 0,0 c 1.557,0.521 3.223,0.801 4.955,0.801 7.555,0 13.859,-5.366 15.307,-12.501 l 10.709,2.187 C 28.514,2.605 17.801,11.73 4.955,11.73 c -2.945,0 -5.773,-0.479 -8.418,-1.364 z"
             inkscape:connector-curvature="0" /></g><g
           transform="translate(140.5723,136.5513)"
           id="g94"><path
             id="path96"
             style="fill:#ffffff;fill-opacity:1;fill-rule:nonzero;stroke:none"
             d="m 0,0 7.242,8.188 c -3.234,2.865 -5.271,7.044 -5.271,11.701 0,4.653 2.037,8.831 5.267,11.693 L -0.006,39.77 C -5.498,34.906 -8.961,27.801 -8.961,19.889 -8.961,11.971 -5.494,4.864 0,0"
             inkscape:connector-curvature="0" /></g><g
           transform="translate(173.4648,153.3047)"
           id="g98"><path
             id="path100"
             style="fill:#ffffff;fill-opacity:1;fill-rule:nonzero;stroke:none"
             d="m 0,0 c -1.447,-7.128 -7.748,-12.485 -15.301,-12.485 -1.734,0 -3.402,0.28 -4.959,0.804 l -3.469,-10.368 c 2.647,-0.886 5.481,-1.363 8.428,-1.363 12.834,0 23.545,9.107 26.012,21.218 z"
             inkscape:connector-curvature="0" /></g><g
           transform="translate(214.9453,147.6255)"
           id="g102"><path
             id="path104"
             style="fill:#ffffff;fill-opacity:1;fill-rule:nonzero;stroke:none"
             d="m 0,0 c -0.004,-0.005 -0.006,-0.007 -0.008,-0.012 l -0.306,0.208 c -0.877,-1.425 -2.243,-2.577 -3.971,-3.324 -3.287,-1.43 -6.332,-1.063 -8.518,0.855 l -0.201,-0.304 c -0.002,0.002 -0.002,0.005 -0.006,0.005 l -3.73,-5.579 c 0.926,-0.643 1.92,-1.189 2.963,-1.624 4.121,-1.71 8.336,-1.631 12.488,0.175 3.002,1.299 5.359,3.285 6.971,5.801 z M -11.643,13.763 C -15.109,12.272 -16.9,9.018 -16.531,5.2 l 14.697,6.327 c -2.525,2.972 -5.816,3.955 -9.809,2.236 M -21.4,-3.231 c -0.352,0.567 -0.829,1.479 -1.116,2.147 -1.695,3.937 -1.777,8.011 -0.345,11.921 1.574,4.292 4.584,7.575 8.468,9.247 C -9.504,22.187 -4.1,21.771 0.584,18.993 3.557,17.288 5.666,14.652 7.268,10.926 7.473,10.45 7.65,9.938 7.826,9.506 Z"
             inkscape:connector-curvature="0" /></g><g
           transform="translate(232.9883,175.9263)"
           id="g106"><path
             id="path108"
             style="fill:#ffffff;fill-opacity:1;fill-rule:nonzero;stroke:none"
             d="m 0,0 v -31.018 l 4.822,-1.953 -2.74,-6.392 -5.322,2.213 c -1.196,0.518 -2.008,1.31 -2.625,2.205 -0.586,0.911 -1.028,2.161 -1.028,3.843 V 0 Z"
             inkscape:connector-curvature="0" /></g><g
           transform="translate(245.4785,152.8115)"
           id="g110"><path
             id="path112"
             style="fill:#ffffff;fill-opacity:1;fill-rule:nonzero;stroke:none"
             d="m 0,0 c 0.004,2.64 1.172,5.009 3.016,6.619 l -4.948,5.516 C -5.287,9.167 -7.398,4.836 -7.404,0.007 c -0.006,-4.834 2.103,-9.17 5.459,-12.144 l 4.939,5.523 C 1.16,-5 0,-2.635 0,0"
             inkscape:connector-curvature="0" /></g><g
           transform="translate(254.2695,144.0088)"
           id="g114"><path
             id="path116"
             style="fill:#ffffff;fill-opacity:1;fill-rule:nonzero;stroke:none"
             d="M 0,0 C -0.973,0.002 -1.91,0.164 -2.787,0.456 L -5.15,-6.572 c 1.615,-0.542 3.347,-0.836 5.144,-0.839 C 7.826,-7.417 14.369,-1.86 15.883,5.53 L 8.621,7.011 C 7.797,3.007 4.248,-0.005 0,0"
             inkscape:connector-curvature="0" /></g><g
           transform="translate(254.291,169.0088)"
           id="g118"><path
             id="path120"
             style="fill:#ffffff;fill-opacity:1;fill-rule:nonzero;stroke:none"
             d="m 0,0 c -1.797,0.002 -3.523,-0.29 -5.139,-0.827 l 2.344,-7.032 c 0.877,0.29 1.815,0.451 2.789,0.451 4.258,-0.005 7.807,-3.032 8.611,-7.049 l 7.264,1.475 C 14.377,-5.583 7.842,-0.004 0,0"
             inkscape:connector-curvature="0" /></g><g
           transform="translate(345.8945,171.2588)"
           id="g124"><path
             id="path126"
             style="fill:#231f20;fill-opacity:1;fill-rule:nonzero;stroke:none"
             d="m 0,0 c 1.557,0.521 3.221,0.801 4.955,0.801 7.553,0 13.859,-5.366 15.305,-12.501 l 10.709,2.187 C 28.512,2.605 17.799,11.73 4.955,11.73 c -2.947,0 -5.775,-0.479 -8.42,-1.364 z"
             inkscape:connector-curvature="0" /></g><g
           transform="translate(333.2559,136.5513)"
           id="g128"><path
             id="path130"
             style="fill:#231f20;fill-opacity:1;fill-rule:nonzero;stroke:none"
             d="m 0,0 7.244,8.188 c -3.234,2.865 -5.273,7.044 -5.273,11.701 0,4.653 2.037,8.831 5.267,11.693 L -0.006,39.77 C -5.498,34.906 -8.961,27.801 -8.961,19.889 -8.961,11.971 -5.494,4.864 0,0"
             inkscape:connector-curvature="0" /></g><g
           transform="translate(366.1504,153.3047)"
           id="g132"><path
             id="path134"
             style="fill:#231f20;fill-opacity:1;fill-rule:nonzero;stroke:none"
             d="m 0,0 c -1.449,-7.128 -7.75,-12.485 -15.301,-12.485 -1.736,0 -3.404,0.28 -4.959,0.804 l -3.47,-10.368 c 2.646,-0.886 5.48,-1.363 8.429,-1.363 12.832,0 23.543,9.107 26.01,21.218 z"
             inkscape:connector-curvature="0" /></g><g
           transform="translate(407.6289,147.6255)"
           id="g136"><path
             id="path138"
             style="fill:#231f20;fill-opacity:1;fill-rule:nonzero;stroke:none"
             d="m 0,0 c -0.004,-0.005 -0.006,-0.007 -0.008,-0.012 l -0.306,0.208 c -0.877,-1.425 -2.243,-2.577 -3.971,-3.324 -3.287,-1.43 -6.332,-1.063 -8.518,0.855 l -0.201,-0.304 -0.004,0.005 -3.732,-5.579 c 0.926,-0.643 1.92,-1.189 2.965,-1.624 4.119,-1.71 8.334,-1.631 12.486,0.175 3.002,1.299 5.359,3.285 6.971,5.801 z M -11.643,13.763 C -15.109,12.272 -16.9,9.018 -16.531,5.2 l 14.697,6.327 c -2.525,2.972 -5.816,3.955 -9.809,2.236 M -21.4,-3.231 c -0.352,0.567 -0.829,1.479 -1.116,2.147 -1.695,3.937 -1.777,8.011 -0.345,11.921 1.574,4.292 4.584,7.575 8.468,9.247 C -9.504,22.187 -4.1,21.771 0.584,18.993 3.557,17.288 5.666,14.652 7.268,10.926 7.473,10.45 7.65,9.938 7.826,9.506 Z"
             inkscape:connector-curvature="0" /></g><g
           transform="translate(425.6719,175.9263)"
           id="g140"><path
             id="path142"
             style="fill:#231f20;fill-opacity:1;fill-rule:nonzero;stroke:none"
             d="m 0,0 v -31.018 l 4.822,-1.953 -2.74,-6.392 -5.322,2.213 c -1.196,0.518 -2.008,1.31 -2.625,2.205 -0.586,0.911 -1.028,2.161 -1.028,3.843 V 0 Z"
             inkscape:connector-curvature="0" /></g><g
           transform="translate(438.1641,152.8115)"
           id="g144"><path
             id="path146"
             style="fill:#231f20;fill-opacity:1;fill-rule:nonzero;stroke:none"
             d="m 0,0 c 0.002,2.64 1.17,5.009 3.014,6.619 l -4.948,5.516 C -5.289,9.167 -7.4,4.836 -7.406,0.007 c -0.006,-4.834 2.103,-9.17 5.459,-12.144 l 4.939,5.523 C 1.158,-5 -0.002,-2.635 0,0"
             inkscape:connector-curvature="0" /></g><g
           transform="translate(446.9531,144.0088)"
           id="g148"><path
             id="path150"
             style="fill:#231f20;fill-opacity:1;fill-rule:nonzero;stroke:none"
             d="M 0,0 C -0.975,0.002 -1.91,0.164 -2.787,0.456 L -5.15,-6.572 c 1.615,-0.542 3.347,-0.836 5.144,-0.839 C 7.826,-7.417 14.369,-1.86 15.885,5.53 L 8.621,7.011 C 7.797,3.007 4.248,-0.005 0,0"
             inkscape:connector-curvature="0" /></g><g
           transform="translate(446.9746,169.0088)"
           id="g152"><path
             id="path154"
             style="fill:#231f20;fill-opacity:1;fill-rule:nonzero;stroke:none"
             d="m 0,0 c -1.797,0.002 -3.523,-0.29 -5.139,-0.827 l 2.344,-7.032 c 0.877,0.29 1.815,0.451 2.789,0.451 4.258,-0.005 7.807,-3.032 8.611,-7.049 l 7.264,1.475 C 14.377,-5.583 7.842,-0.004 0,0"
             inkscape:connector-curvature="0" /></g></g></g></g></svg>