<?xml version="1.0" standalone="no"?>
<!DOCTYPE svg PUBLIC "-//W3C//DTD SVG 20010904//EN"
 "http://www.w3.org/TR/2001/REC-SVG-20010904/DTD/svg10.dtd">
<svg version="1.0" xmlns="http://www.w3.org/2000/svg"
 width="24" height="24" viewBox="0 0 512.000000 512.000000"
 preserveAspectRatio="xMidYMid meet">

 

<g transform="translate(0.000000,512.000000) scale(0.100000,-0.100000)"
fill="#ffffff" stroke="none">
<path d="M145 5105 c-22 -8 -59 -34 -82 -58 -103 -109 -78 -266 55 -349 35
-22 49 -23 267 -28 l230 -5 65 -31 c75 -36 142 -98 176 -165 19 -39 604 -2289
604 -2326 0 -5 -113 -74 -251 -153 -201 -114 -263 -154 -308 -200 -103 -104
-158 -252 -148 -395 16 -219 143 -387 355 -468 l57 -22 1725 -3 c1346 -2 1735
0 1770 10 85 23 160 124 160 214 0 87 -76 191 -155 213 -28 8 -537 11 -1728
11 l-1688 0 -24 25 c-29 28 -32 64 -8 94 10 11 142 90 293 176 l275 155 636 0
c611 0 640 1 702 20 70 22 149 77 188 131 12 17 33 57 45 88 l23 56 443 5
c378 5 450 8 493 23 129 43 255 152 312 269 21 45 98 326 262 969 127 498 231
913 231 923 0 9 -11 28 -25 41 l-24 25 -1855 0 -1854 0 -12 53 c-7 28 -25 93
-41 142 -94 295 -352 516 -659 565 -101 15 -456 12 -505 -5z m512 -150 c79
-15 217 -74 263 -113 l25 -21 -51 -52 -52 -51 -44 26 c-103 60 -145 69 -386
75 -220 6 -224 6 -243 30 -26 32 -24 67 6 96 24 25 26 25 214 25 126 0 215 -5
268 -15z m422 -274 c66 -93 87 -166 391 -1356 267 -1047 304 -1183 326 -1202
l25 -23 700 0 c384 0 699 -3 699 -8 0 -22 -56 -85 -98 -109 l-47 -28 -670 -5
-670 -5 -284 -160 c-192 -108 -299 -175 -331 -205 -65 -64 -84 -135 -59 -225
14 -51 93 -130 146 -144 26 -8 566 -11 1726 -11 l1688 0 24 -25 c32 -31 32
-69 0 -101 l-24 -24 -1718 2 -1718 3 -61 28 c-77 36 -154 113 -191 192 -24 51
-28 73 -28 150 0 78 4 98 28 151 43 92 107 147 297 255 392 220 378 212 390
245 7 16 -69 326 -281 1156 -326 1278 -320 1254 -361 1327 l-30 54 48 48 c27
27 51 49 55 49 4 0 17 -13 28 -29z m915 -508 c11 -52 76 -486 76 -504 0 -18
-13 -19 -264 -19 l-264 0 -11 43 c-6 23 -36 139 -66 258 -30 118 -57 223 -61
232 -6 16 17 17 289 17 l295 0 6 -27z m740 -40 c3 -38 8 -122 11 -188 3 -66 8
-159 11 -207 l6 -88 -160 0 c-146 0 -161 -2 -186 -21 -19 -15 -26 -30 -26 -54
0 -24 7 -39 26 -54 25 -19 40 -21 190 -21 l164 0 1 -57 c0 -32 6 -156 12 -276
l12 -217 -230 0 -231 0 -78 513 c-43 281 -86 563 -96 625 l-17 112 293 0 292
0 6 -67z m736 50 c0 -50 -21 -454 -26 -490 l-5 -43 -263 0 -264 0 -6 83 c-3
45 -8 141 -11 212 -3 72 -8 158 -11 193 l-6 62 296 0 c275 0 296 -1 296 -17z
m737 -5 c-3 -13 -22 -137 -43 -275 l-38 -253 -267 0 -267 0 4 58 c6 83 24 433
24 465 l0 27 296 0 296 0 -5 -22z m672 -248 c-38 -149 -69 -273 -69 -275 0 -3
-119 -5 -265 -5 -147 0 -265 4 -265 9 0 5 18 124 40 266 22 142 40 261 40 266
0 5 130 9 294 9 l294 0 -69 -270z m-2779 -435 c0 -3 18 -122 40 -265 22 -143
40 -264 40 -270 0 -6 -78 -10 -230 -10 l-229 0 -10 38 c-5 20 -35 136 -66 257
-31 121 -58 228 -61 238 -5 16 12 17 255 17 144 0 261 -2 261 -5z m1323 -212
c-6 -120 -12 -244 -12 -276 l-1 -57 -232 2 -233 3 -12 215 c-6 118 -11 241
-12 273 l-1 57 258 0 257 0 -12 -217z m677 207 c0 -6 -18 -127 -40 -270 -22
-143 -40 -262 -40 -265 0 -3 -103 -5 -230 -5 l-230 0 0 23 c0 51 22 503 26
515 4 16 514 18 514 2z m666 -7 c-3 -10 -31 -117 -61 -238 -31 -121 -61 -237
-66 -257 l-10 -38 -230 0 -231 0 5 23 c3 12 22 136 43 275 l38 252 259 0 c241
0 258 -1 253 -17z m-2522 -935 c21 -139 40 -263 43 -275 l5 -23 -195 0 c-178
0 -196 2 -201 18 -3 9 -33 125 -66 257 -34 132 -64 248 -66 258 -5 16 10 17
219 17 l223 0 38 -252z m560 210 c5 -37 26 -441 26 -490 0 -17 -16 -18 -195
-18 -107 0 -195 4 -195 9 0 5 -18 124 -40 266 -22 142 -40 261 -40 266 0 5 99
9 219 9 l220 0 5 -42z m592 -45 c-3 -49 -8 -142 -11 -208 -3 -66 -8 -150 -11
-187 l-6 -68 -194 0 -194 0 0 27 c0 32 -18 382 -24 466 l-4 57 225 0 225 0 -6
-87z m594 68 c0 -18 -65 -452 -76 -503 l-6 -28 -194 0 -194 0 5 78 c6 81 25
436 25 459 0 10 44 13 220 13 208 0 220 -1 220 -19z m596 2 c-3 -10 -19 -74
-36 -143 -17 -69 -40 -145 -51 -169 -61 -139 -206 -226 -366 -219 l-69 3 42
270 c23 149 42 271 43 273 1 1 100 2 222 2 205 0 220 -1 215 -17z"/>
<path d="M1637 740 c-105 -27 -206 -112 -254 -215 -24 -52 -28 -72 -28 -150 0
-77 4 -99 28 -151 36 -77 113 -154 192 -191 52 -24 73 -28 150 -28 80 0 97 3
155 31 82 39 144 101 184 184 28 58 31 75 31 155 0 80 -3 97 -31 155 -62 129
-178 208 -316 215 -40 3 -90 0 -111 -5z m207 -177 c124 -87 140 -240 37 -343
-94 -93 -216 -94 -311 -2 -66 64 -84 135 -59 226 14 50 83 123 134 142 61 22
148 12 199 -23z"/>
<path d="M1675 425 c-14 -13 -25 -36 -25 -50 0 -33 42 -75 75 -75 33 0 75 42
75 75 0 33 -42 75 -75 75 -14 0 -37 -11 -50 -25z"/>
<path d="M4207 740 c-105 -27 -206 -112 -254 -215 -24 -52 -28 -72 -28 -150 0
-77 4 -99 28 -151 36 -77 113 -154 192 -191 52 -24 73 -28 150 -28 80 0 97 3
155 31 82 39 144 101 184 184 28 58 31 75 31 155 0 80 -3 97 -31 155 -62 129
-178 208 -316 215 -40 3 -90 0 -111 -5z m207 -177 c124 -87 140 -240 37 -343
-94 -93 -216 -94 -311 -2 -66 64 -84 135 -59 226 14 50 83 123 134 142 61 22
148 12 199 -23z"/>
<path d="M4245 425 c-14 -13 -25 -36 -25 -50 0 -33 42 -75 75 -75 33 0 75 42
75 75 0 33 -42 75 -75 75 -14 0 -37 -11 -50 -25z"/>
</g>
</svg>
